<mxfile host="app.diagrams.net" modified="2022-02-21T01:32:38.341Z" agent="5.0 (Macintosh; Intel Mac OS X 10_15_7) AppleWebKit/605.1.15 (KHTML, like Gecko) Version/15.0 Safari/605.1.15" etag="QcRFyqBpKXoA4EDXlPWL" version="16.6.1" type="github">
  <diagram id="2uj7CHDzdd9baOE3cozI" name="Page-1">
    <mxGraphModel dx="3311" dy="819" grid="1" gridSize="10" guides="1" tooltips="1" connect="1" arrows="1" fold="1" page="1" pageScale="1" pageWidth="827" pageHeight="1169" math="0" shadow="0">
      <root>
        <mxCell id="0" />
        <mxCell id="1" parent="0" />
        <mxCell id="sBYmPqJ818POzDT19pV9-6" value="" style="edgeStyle=orthogonalEdgeStyle;rounded=0;orthogonalLoop=1;jettySize=auto;html=1;fontSize=14;" edge="1" parent="1" source="sBYmPqJ818POzDT19pV9-4" target="sBYmPqJ818POzDT19pV9-5">
          <mxGeometry relative="1" as="geometry" />
        </mxCell>
        <mxCell id="sBYmPqJ818POzDT19pV9-4" value="&lt;span style=&quot;font-size: 14px;&quot;&gt;read x&lt;/span&gt;&lt;br style=&quot;font-size: 14px;&quot;&gt;&lt;span style=&quot;font-size: 14px;&quot;&gt;i = 0&lt;/span&gt;" style="rounded=1;whiteSpace=wrap;html=1;fontSize=14;" vertex="1" parent="1">
          <mxGeometry x="280" y="80" width="120" height="60" as="geometry" />
        </mxCell>
        <mxCell id="sBYmPqJ818POzDT19pV9-8" value="" style="edgeStyle=orthogonalEdgeStyle;rounded=0;orthogonalLoop=1;jettySize=auto;html=1;fontSize=14;" edge="1" parent="1" source="sBYmPqJ818POzDT19pV9-5" target="sBYmPqJ818POzDT19pV9-7">
          <mxGeometry relative="1" as="geometry" />
        </mxCell>
        <mxCell id="sBYmPqJ818POzDT19pV9-9" value="i &amp;gt;= x" style="edgeLabel;html=1;align=center;verticalAlign=middle;resizable=0;points=[];fontSize=14;" vertex="1" connectable="0" parent="sBYmPqJ818POzDT19pV9-8">
          <mxGeometry x="-0.1333" y="1" relative="1" as="geometry">
            <mxPoint as="offset" />
          </mxGeometry>
        </mxCell>
        <mxCell id="sBYmPqJ818POzDT19pV9-11" value="" style="edgeStyle=orthogonalEdgeStyle;rounded=0;orthogonalLoop=1;jettySize=auto;html=1;fontSize=14;" edge="1" parent="1" source="sBYmPqJ818POzDT19pV9-5" target="sBYmPqJ818POzDT19pV9-10">
          <mxGeometry relative="1" as="geometry" />
        </mxCell>
        <mxCell id="sBYmPqJ818POzDT19pV9-12" value="i &amp;lt; x" style="edgeLabel;html=1;align=center;verticalAlign=middle;resizable=0;points=[];fontSize=14;" vertex="1" connectable="0" parent="sBYmPqJ818POzDT19pV9-11">
          <mxGeometry x="-0.16" y="3" relative="1" as="geometry">
            <mxPoint as="offset" />
          </mxGeometry>
        </mxCell>
        <mxCell id="sBYmPqJ818POzDT19pV9-5" value="while (i &amp;lt; x)" style="rounded=1;whiteSpace=wrap;html=1;fontSize=14;" vertex="1" parent="1">
          <mxGeometry x="280" y="240" width="120" height="60" as="geometry" />
        </mxCell>
        <mxCell id="sBYmPqJ818POzDT19pV9-7" value="print x" style="rounded=1;whiteSpace=wrap;html=1;fontSize=14;" vertex="1" parent="1">
          <mxGeometry x="520" y="240" width="120" height="60" as="geometry" />
        </mxCell>
        <mxCell id="sBYmPqJ818POzDT19pV9-14" value="" style="edgeStyle=orthogonalEdgeStyle;rounded=0;orthogonalLoop=1;jettySize=auto;html=1;fontSize=14;" edge="1" parent="1" source="sBYmPqJ818POzDT19pV9-10" target="sBYmPqJ818POzDT19pV9-13">
          <mxGeometry relative="1" as="geometry" />
        </mxCell>
        <mxCell id="sBYmPqJ818POzDT19pV9-15" value="(i mod 5) == 3" style="edgeLabel;html=1;align=center;verticalAlign=middle;resizable=0;points=[];fontSize=14;" vertex="1" connectable="0" parent="sBYmPqJ818POzDT19pV9-14">
          <mxGeometry x="-0.2" relative="1" as="geometry">
            <mxPoint as="offset" />
          </mxGeometry>
        </mxCell>
        <mxCell id="sBYmPqJ818POzDT19pV9-17" value="" style="edgeStyle=orthogonalEdgeStyle;rounded=0;orthogonalLoop=1;jettySize=auto;html=1;fontSize=14;" edge="1" parent="1" source="sBYmPqJ818POzDT19pV9-10" target="sBYmPqJ818POzDT19pV9-16">
          <mxGeometry relative="1" as="geometry" />
        </mxCell>
        <mxCell id="sBYmPqJ818POzDT19pV9-18" value="&lt;span style=&quot;font-size: 14px; background-color: rgb(248, 249, 250);&quot;&gt;if ((i &amp;nbsp;mod &amp;nbsp;5) != 3)&lt;/span&gt;" style="edgeLabel;html=1;align=center;verticalAlign=middle;resizable=0;points=[];fontSize=14;" vertex="1" connectable="0" parent="sBYmPqJ818POzDT19pV9-17">
          <mxGeometry x="-0.2" y="-1" relative="1" as="geometry">
            <mxPoint as="offset" />
          </mxGeometry>
        </mxCell>
        <mxCell id="sBYmPqJ818POzDT19pV9-10" value="if ((i &amp;nbsp;mod &amp;nbsp;5) == 3)" style="rounded=1;whiteSpace=wrap;html=1;fontSize=14;" vertex="1" parent="1">
          <mxGeometry x="280" y="400" width="120" height="60" as="geometry" />
        </mxCell>
        <mxCell id="sBYmPqJ818POzDT19pV9-20" value="" style="edgeStyle=orthogonalEdgeStyle;rounded=0;orthogonalLoop=1;jettySize=auto;html=1;fontSize=14;" edge="1" parent="1" source="sBYmPqJ818POzDT19pV9-13" target="sBYmPqJ818POzDT19pV9-19">
          <mxGeometry relative="1" as="geometry" />
        </mxCell>
        <mxCell id="sBYmPqJ818POzDT19pV9-13" value="i = i + 2" style="rounded=1;whiteSpace=wrap;html=1;fontSize=14;" vertex="1" parent="1">
          <mxGeometry x="520" y="400" width="120" height="60" as="geometry" />
        </mxCell>
        <mxCell id="sBYmPqJ818POzDT19pV9-24" value="" style="edgeStyle=orthogonalEdgeStyle;rounded=0;orthogonalLoop=1;jettySize=auto;html=1;entryX=0;entryY=0.5;entryDx=0;entryDy=0;fontSize=14;" edge="1" parent="1" source="sBYmPqJ818POzDT19pV9-16" target="sBYmPqJ818POzDT19pV9-23">
          <mxGeometry relative="1" as="geometry" />
        </mxCell>
        <mxCell id="sBYmPqJ818POzDT19pV9-16" value="i = i + 1" style="rounded=1;whiteSpace=wrap;html=1;fontSize=14;" vertex="1" parent="1">
          <mxGeometry x="280" y="540" width="120" height="60" as="geometry" />
        </mxCell>
        <mxCell id="sBYmPqJ818POzDT19pV9-22" value="" style="edgeStyle=orthogonalEdgeStyle;rounded=0;orthogonalLoop=1;jettySize=auto;html=1;fontSize=14;" edge="1" parent="1" source="sBYmPqJ818POzDT19pV9-19" target="sBYmPqJ818POzDT19pV9-21">
          <mxGeometry relative="1" as="geometry" />
        </mxCell>
        <mxCell id="sBYmPqJ818POzDT19pV9-19" value="x = x + 1" style="rounded=1;whiteSpace=wrap;html=1;fontSize=14;" vertex="1" parent="1">
          <mxGeometry x="720" y="400" width="120" height="60" as="geometry" />
        </mxCell>
        <mxCell id="sBYmPqJ818POzDT19pV9-25" style="edgeStyle=orthogonalEdgeStyle;rounded=0;orthogonalLoop=1;jettySize=auto;html=1;fontSize=14;" edge="1" parent="1" source="sBYmPqJ818POzDT19pV9-21">
          <mxGeometry relative="1" as="geometry">
            <mxPoint x="580" y="640" as="targetPoint" />
          </mxGeometry>
        </mxCell>
        <mxCell id="sBYmPqJ818POzDT19pV9-21" value="print x" style="rounded=1;whiteSpace=wrap;html=1;fontSize=14;" vertex="1" parent="1">
          <mxGeometry x="720" y="540" width="120" height="60" as="geometry" />
        </mxCell>
        <mxCell id="sBYmPqJ818POzDT19pV9-27" value="" style="edgeStyle=orthogonalEdgeStyle;rounded=0;orthogonalLoop=1;jettySize=auto;html=1;fontSize=14;" edge="1" parent="1" source="sBYmPqJ818POzDT19pV9-23" target="sBYmPqJ818POzDT19pV9-26">
          <mxGeometry relative="1" as="geometry" />
        </mxCell>
        <mxCell id="sBYmPqJ818POzDT19pV9-28" value="&lt;span style=&quot;font-size: 14px; background-color: rgb(248, 249, 250);&quot;&gt;(i &amp;nbsp;mod 5) == 4&lt;/span&gt;" style="edgeLabel;html=1;align=center;verticalAlign=middle;resizable=0;points=[];fontSize=14;" vertex="1" connectable="0" parent="sBYmPqJ818POzDT19pV9-27">
          <mxGeometry x="-0.075" y="-1" relative="1" as="geometry">
            <mxPoint as="offset" />
          </mxGeometry>
        </mxCell>
        <mxCell id="sBYmPqJ818POzDT19pV9-30" style="edgeStyle=orthogonalEdgeStyle;rounded=0;orthogonalLoop=1;jettySize=auto;html=1;entryX=0;entryY=0.5;entryDx=0;entryDy=0;strokeColor=#FF4E21;fontSize=14;" edge="1" parent="1" source="sBYmPqJ818POzDT19pV9-23" target="sBYmPqJ818POzDT19pV9-5">
          <mxGeometry relative="1" as="geometry">
            <Array as="points">
              <mxPoint x="680" y="670" />
              <mxPoint x="680" y="890" />
              <mxPoint x="220" y="890" />
              <mxPoint x="220" y="270" />
            </Array>
          </mxGeometry>
        </mxCell>
        <mxCell id="sBYmPqJ818POzDT19pV9-31" value="&lt;span style=&quot;color: rgba(0, 0, 0, 0); font-family: monospace; font-size: 14px; background-color: rgb(248, 249, 250);&quot;&gt;%3CmxGraphModel%3E%3Croot%3E%3CmxCell%20id%3D%220%22%2F%3E%3CmxCell%20id%3D%221%22%20parent%3D%220%22%2F%3E%3CmxCell%20id%3D%222%22%20value%3D%22%26lt%3Bspan%20style%3D%26quot%3Bfont-size%3A%2012px%20%3B%20background-color%3A%20rgb(248%20%2C%20249%20%2C%20250)%26quot%3B%26gt%3B(i%20%26amp%3Bnbsp%3Bmod%205)%20%3D%3D%204%26lt%3B%2Fspan%26gt%3B%22%20style%3D%22edgeLabel%3Bhtml%3D1%3Balign%3Dcenter%3BverticalAlign%3Dmiddle%3Bresizable%3D0%3Bpoints%3D%5B%5D%3B%22%20vertex%3D%221%22%20connectable%3D%220%22%20parent%3D%221%22%3E%3CmxGeometry%20x%3D%22579%22%20y%3D%22737%22%20as%3D%22geometry%22%2F%3E%3C%2FmxCell%3E%3C%2Froot%3E%3C%2FmxGraphModel%3E&lt;/span&gt;" style="edgeLabel;html=1;align=center;verticalAlign=middle;resizable=0;points=[];fontSize=14;" vertex="1" connectable="0" parent="sBYmPqJ818POzDT19pV9-30">
          <mxGeometry x="-0.8182" y="1" relative="1" as="geometry">
            <mxPoint as="offset" />
          </mxGeometry>
        </mxCell>
        <mxCell id="sBYmPqJ818POzDT19pV9-33" value="&lt;span style=&quot;font-size: 14px; background-color: rgb(248, 249, 250);&quot;&gt;(i &amp;nbsp;mod 5) != 4&lt;/span&gt;" style="edgeLabel;html=1;align=center;verticalAlign=middle;resizable=0;points=[];fontSize=14;" vertex="1" connectable="0" parent="sBYmPqJ818POzDT19pV9-30">
          <mxGeometry x="-0.8136" relative="1" as="geometry">
            <mxPoint y="-13" as="offset" />
          </mxGeometry>
        </mxCell>
        <mxCell id="sBYmPqJ818POzDT19pV9-23" value="if ((i &amp;nbsp;mod 5) == 4)" style="rounded=1;whiteSpace=wrap;html=1;fontSize=14;" vertex="1" parent="1">
          <mxGeometry x="520" y="640" width="120" height="60" as="geometry" />
        </mxCell>
        <mxCell id="sBYmPqJ818POzDT19pV9-29" style="edgeStyle=orthogonalEdgeStyle;rounded=0;orthogonalLoop=1;jettySize=auto;html=1;entryX=0;entryY=0.5;entryDx=0;entryDy=0;strokeColor=#FF5226;fontSize=14;" edge="1" parent="1" source="sBYmPqJ818POzDT19pV9-26" target="sBYmPqJ818POzDT19pV9-5">
          <mxGeometry relative="1" as="geometry" />
        </mxCell>
        <mxCell id="sBYmPqJ818POzDT19pV9-26" value="x = x + 1" style="rounded=1;whiteSpace=wrap;html=1;fontSize=14;" vertex="1" parent="1">
          <mxGeometry x="520" y="780" width="120" height="60" as="geometry" />
        </mxCell>
        <mxCell id="sBYmPqJ818POzDT19pV9-34" value="S1&lt;br style=&quot;font-size: 14px;&quot;&gt;S2" style="text;html=1;align=center;verticalAlign=middle;resizable=0;points=[];autosize=1;strokeColor=none;fillColor=none;fontSize=14;" vertex="1" parent="1">
          <mxGeometry x="400" y="90" width="30" height="40" as="geometry" />
        </mxCell>
        <mxCell id="sBYmPqJ818POzDT19pV9-35" value="S3" style="text;html=1;align=center;verticalAlign=middle;resizable=0;points=[];autosize=1;strokeColor=none;fillColor=none;fontSize=14;" vertex="1" parent="1">
          <mxGeometry x="405" y="240" width="30" height="20" as="geometry" />
        </mxCell>
        <mxCell id="sBYmPqJ818POzDT19pV9-36" value="S11" style="text;html=1;align=center;verticalAlign=middle;resizable=0;points=[];autosize=1;strokeColor=none;fillColor=none;fontSize=14;" vertex="1" parent="1">
          <mxGeometry x="640" y="240" width="40" height="20" as="geometry" />
        </mxCell>
        <mxCell id="sBYmPqJ818POzDT19pV9-37" value="S4" style="text;html=1;align=center;verticalAlign=middle;resizable=0;points=[];autosize=1;strokeColor=none;fillColor=none;fontSize=14;" vertex="1" parent="1">
          <mxGeometry x="400" y="400" width="30" height="20" as="geometry" />
        </mxCell>
        <mxCell id="sBYmPqJ818POzDT19pV9-38" value="S5" style="text;html=1;align=center;verticalAlign=middle;resizable=0;points=[];autosize=1;strokeColor=none;fillColor=none;fontSize=14;" vertex="1" parent="1">
          <mxGeometry x="640" y="400" width="30" height="20" as="geometry" />
        </mxCell>
        <mxCell id="sBYmPqJ818POzDT19pV9-39" value="S6" style="text;html=1;align=center;verticalAlign=middle;resizable=0;points=[];autosize=1;strokeColor=none;fillColor=none;fontSize=14;" vertex="1" parent="1">
          <mxGeometry x="840" y="400" width="30" height="20" as="geometry" />
        </mxCell>
        <mxCell id="sBYmPqJ818POzDT19pV9-40" value="S7" style="text;html=1;align=center;verticalAlign=middle;resizable=0;points=[];autosize=1;strokeColor=none;fillColor=none;fontSize=14;" vertex="1" parent="1">
          <mxGeometry x="840" y="540" width="30" height="20" as="geometry" />
        </mxCell>
        <mxCell id="sBYmPqJ818POzDT19pV9-41" value="S8" style="text;html=1;align=center;verticalAlign=middle;resizable=0;points=[];autosize=1;strokeColor=none;fillColor=none;fontSize=14;" vertex="1" parent="1">
          <mxGeometry x="400" y="540" width="30" height="20" as="geometry" />
        </mxCell>
        <mxCell id="sBYmPqJ818POzDT19pV9-42" value="S9" style="text;html=1;align=center;verticalAlign=middle;resizable=0;points=[];autosize=1;strokeColor=none;fillColor=none;fontSize=14;" vertex="1" parent="1">
          <mxGeometry x="640" y="640" width="30" height="20" as="geometry" />
        </mxCell>
        <mxCell id="sBYmPqJ818POzDT19pV9-43" value="S10" style="text;html=1;align=center;verticalAlign=middle;resizable=0;points=[];autosize=1;strokeColor=none;fillColor=none;fontSize=14;" vertex="1" parent="1">
          <mxGeometry x="640" y="780" width="40" height="20" as="geometry" />
        </mxCell>
      </root>
    </mxGraphModel>
  </diagram>
</mxfile>
